<?xml version="1.0" encoding="UTF-8" standalone="no"?>
<!-- Generated by Pixelmator Pro 3.4.3 -->

<svg
   width="150"
   height="142.58463"
   viewBox="0 0 150 142.58462"
   version="1.1"
   id="svg1"
   sodipodi:docname="aix symbol.svg"
   inkscape:version="1.3 (0e150ed6c4, 2023-07-21)"
   xml:space="preserve"
   xmlns:inkscape="http://www.inkscape.org/namespaces/inkscape"
   xmlns:sodipodi="http://sodipodi.sourceforge.net/DTD/sodipodi-0.dtd"
   xmlns="http://www.w3.org/2000/svg"
   xmlns:svg="http://www.w3.org/2000/svg"><defs
     id="defs1" /><sodipodi:namedview
     id="namedview1"
     pagecolor="#505050"
     bordercolor="#eeeeee"
     borderopacity="1"
     inkscape:showpageshadow="0"
     inkscape:pageopacity="0"
     inkscape:pagecheckerboard="0"
     inkscape:deskcolor="#d1d1d1"
     inkscape:zoom="1.5208438"
     inkscape:cx="-28.931308"
     inkscape:cy="74.629623"
     inkscape:window-width="1920"
     inkscape:window-height="991"
     inkscape:window-x="-9"
     inkscape:window-y="-9"
     inkscape:window-maximized="1"
     inkscape:current-layer="svg1" /><path
     id="path6-7-1-1-5-0-9-5"
     style="font-variation-settings:normal;display:inline;vector-effect:none;fill:#ff6423;fill-opacity:1;stroke:none;stroke-width:2.59513;stroke-linecap:butt;stroke-linejoin:miter;stroke-miterlimit:4;stroke-dasharray:none;stroke-dashoffset:0;stroke-opacity:1;-inkscape-stroke:none;paint-order:stroke fill markers;stop-color:#000000"
     d="M 19.057373,0 C 3.3920999,0 0,2.886671 0,2.886671 v 22.59109 c 0,0 3.3661336,-2.407649 14.016539,-2.407649 10.959259,0 20.902115,3.046691 30.765842,22.908357 L 57.419397,71.425096 42.192778,101.67303 C 39.165247,107.6871 31.185399,119.26217 14.618459,119.26217 4.5511297,119.26217 0,117.1329 0,117.1329 v 22.82905 c 0,0 4.3937247,2.53984 20.058966,2.53984 23.298199,0 36.758101,-8.32141 49.859013,-37.17845 L 85.307865,71.425096 69.838631,37.525273 C 64.041119,24.820914 59.300567,15.581891 48.807567,7.981927 40.981438,2.3135216 31.220536,0 19.057373,0 Z M 132.16043,0.02521 c -7.28761,0 -15.25984,-0.073109 -24.26614,4.1667087 C 98.80492,8.4709064 89.234353,17.207085 80.889213,31.383613 l 12.083311,26.41406 C 103.40767,40.191451 112.04868,23.118641 134.33788,23.118641 143.5718,23.118641 150,25.565145 150,25.565145 V 2.1731019 c 0,0 -6.64945,-2.1478919 -17.83957,-2.1478919 z M 92.972524,84.813654 80.889213,111.86379 c 8.34514,14.1766 17.915707,22.27663 27.005077,26.55559 9.0063,4.23985 16.97853,4.16516 24.26614,4.16516 11.19012,0 17.83957,-2.14635 17.83957,-2.14635 v -23.39204 c 0,0 -6.4282,2.12766 -15.66212,2.12766 -24.1087,0 -30.93021,-16.75393 -41.365356,-34.360156 z" /></svg>
