<svg version="1.1" id="Layer_1" xmlns="http://www.w3.org/2000/svg" xmlns:xlink="http://www.w3.org/1999/xlink" x="0px" y="0px" viewBox="0 0 45.9 46" style="enable-background:new 0 0 45.9 46;" xml:space="preserve">
 <style type="text/css">
  .st0{fill-rule:evenodd;clip-rule:evenodd;fill:#001B94;}
 </style>
 <desc>
  Created with Sketch.
 </desc>
 <g id="IndiGo-Blue">
  <path id="Combined-Shape" class="st0" d="M37.4,16c0,1-0.8,1.9-1.9,1.9c-1,0-1.9-0.8-1.9-1.9s0.8-1.9,1.9-1.9
		C36.6,14.1,37.4,14.9,37.4,16z M31.8,10.3c0,1-0.8,1.9-1.9,1.9c-1,0-1.9-0.8-1.9-1.9c0-1,0.8-1.9,1.9-1.9
		C31,8.4,31.8,9.3,31.8,10.3z M37.4,10.3c0,1-0.8,1.9-1.9,1.9c-1,0-1.9-0.8-1.9-1.9c0-1,0.8-1.9,1.9-1.9
		C36.6,8.4,37.4,9.3,37.4,10.3z M26.2,10.3c0,1-0.8,1.9-1.9,1.9c-1,0-1.9-0.8-1.9-1.9c0-1,0.8-1.9,1.9-1.9
		C25.4,8.4,26.2,9.3,26.2,10.3z M40.6,4.3c0.7,0.7,0.7,1.9,0,2.7c-0.7,0.7-1.9,0.7-2.6,0c-0.7-0.7-0.7-1.9,0-2.7
		C38.7,3.6,39.9,3.6,40.6,4.3z M45.3,0.5c0.7,0.7,0.7,1.9,0,2.7c-0.7,0.7-1.9,0.7-2.6,0c-0.7-0.7-0.7-1.9,0-2.7
		C43.4-0.2,44.6-0.2,45.3,0.5z M19.7,10.3c0,1-0.8,1.9-1.9,1.9c-1,0-1.9-0.8-1.9-1.9c0-1,0.8-1.9,1.9-1.9
		C18.8,8.4,19.7,9.3,19.7,10.3z M14,10.3c0,1-0.8,1.9-1.9,1.9c-1,0-1.9-0.8-1.9-1.9c0-1,0.8-1.9,1.9-1.9C13.2,8.4,14,9.3,14,10.3z
		 M35.6,19.7c1,0,1.9,0.8,1.9,1.9c0,1-0.8,1.9-1.9,1.9c-1,0-1.9-0.8-1.9-1.9C33.7,20.6,34.5,19.7,35.6,19.7z M15,38.5
		c0,1-0.8,1.9-1.9,1.9c-1,0-1.9-0.8-1.9-1.9s0.8-1.9,1.9-1.9C14.1,36.6,15,37.5,15,38.5z M9.4,32.9c0,1-0.8,1.9-1.9,1.9
		c-1,0-1.9-0.8-1.9-1.9c0-1,0.8-1.9,1.9-1.9C8.5,31,9.4,31.8,9.4,32.9z M15,32.9c0,1-0.8,1.9-1.9,1.9c-1,0-1.9-0.8-1.9-1.9
		c0-1,0.8-1.9,1.9-1.9C14.1,31,15,31.8,15,32.9z M3.7,32.9c0,1-0.8,1.9-1.9,1.9c-1,0-1.9-0.8-1.9-1.9c0-1,0.8-1.9,1.9-1.9
		C2.9,31,3.7,31.8,3.7,32.9z M13.1,42.2c1,0,1.9,0.8,1.9,1.9c0,1-0.8,1.9-1.9,1.9c-1,0-1.9-0.8-1.9-1.9
		C11.2,43.1,12.1,42.2,13.1,42.2z M35.6,25.3c1,0,1.9,0.8,1.9,1.9s-0.8,1.9-1.9,1.9c-1,0-1.9-0.8-1.9-1.9S34.5,25.3,35.6,25.3z
		 M35.6,31.9c1,0,1.9,0.8,1.9,1.9s-0.8,1.9-1.9,1.9c-1,0-1.9-0.8-1.9-1.9S34.5,31.9,35.6,31.9z M23.4,24.4c0,1-0.8,1.9-1.9,1.9
		c-1,0-1.9-0.8-1.9-1.9c0-1,0.8-1.9,1.9-1.9C22.6,22.5,23.4,23.4,23.4,24.4z M26.6,18.4c0.7,0.7,0.7,1.9,0,2.7
		c-0.7,0.7-1.9,0.7-2.6,0c-0.7-0.7-0.7-1.9,0-2.7C24.7,17.7,25.9,17.7,26.6,18.4z M31.3,14.6c0.7,0.7,0.7,1.9,0,2.7
		c-0.7,0.7-1.9,0.7-2.6,0c-0.7-0.7-0.7-1.9,0-2.7C29.4,13.9,30.5,13.9,31.3,14.6z M19.1,26.8c0.7,0.7,0.7,1.9,0,2.7
		c-0.7,0.7-1.9,0.7-2.6,0c-0.7-0.7-0.7-1.9,0-2.7C17.2,26.1,18.4,26.1,19.1,26.8z">
  </path>
 </g>
</svg>