<svg version="1.1" id="Layer_1" xmlns="http://www.w3.org/2000/svg" xmlns:xlink="http://www.w3.org/1999/xlink" x="0px" y="0px" viewBox="0 0 65.4 65.4" style="enable-background:new 0 0 65.4 65.4;" xml:space="preserve">
 <style type="text/css">
  .st0{fill:#BB9753;}
 </style>
 <g>
  <g>
   <path class="st0" d="M65.1,32.2c-0.1-0.2-3.5-4.6-9.9-8.7c0.5-2.4,0.8-4.6,0.9-6.4c0.3-4.2-0.1-7-0.1-7.1l-0.1-0.6l-0.6-0.1
			c-0.1,0-2.9-0.4-7.1-0.1c-1.8,0.1-3.9,0.4-6.3,0.9c-4.1-6.4-8.6-9.7-8.8-9.8L32.7,0l-0.5,0.3c-0.2,0.2-4.7,3.5-8.8,9.8
			c-2.4-0.5-4.6-0.8-6.4-0.9c-4.2-0.3-7,0.1-7.1,0.1L9.5,9.5L9.4,10c0,0.1-0.4,2.9-0.1,7.1c0.1,1.8,0.4,4,0.9,6.4
			c-6.4,4.1-9.7,8.6-9.8,8.8L0,32.7l0.3,0.5c0.1,0.2,3.5,4.6,9.8,8.8c-0.5,2.4-0.8,4.6-0.9,6.3c-0.3,4.2,0.1,7,0.1,7.1l0.1,0.6
			L10,56c0.1,0,1.6,0.2,4,0.2c0.9,0,1.9,0,3.1-0.1c1.8-0.1,4-0.4,6.4-0.9c4.1,6.4,8.6,9.7,8.8,9.9l0.5,0.4l0.5-0.4
			c0.2-0.1,4.6-3.5,8.7-9.9c2.4,0.5,4.6,0.8,6.3,0.9c1.1,0.1,2.2,0.1,3.1,0.1c2.4,0,3.9-0.2,4-0.2l0.6-0.1l0.1-0.6
			c0-0.1,0.4-2.9,0.1-7.1c-0.1-1.8-0.4-3.9-0.9-6.3c6.4-4.1,9.8-8.6,9.9-8.8l0.4-0.5L65.1,32.2z M52.1,32.7c0.7-1.4,1.2-2.8,1.7-4.2
			c2.5,1.8,4.2,3.4,4.9,4.2c-0.7,0.8-2.4,2.4-4.9,4.2C53.3,35.5,52.7,34.1,52.1,32.7 M48.3,10.8c3-0.2,5.2,0,6.2,0.1
			c0.2,2.4,0.8,11.7-4,21.5c-0.6,1.2-1.3,2.5-2,3.6c-0.5,0.8-1.1,1.7-1.6,2.4l-0.2,0.3l0,0.3c0.6,3.7,0.3,6.7,0.1,7.9
			c-1.2,0.2-4.2,0.5-7.9-0.1l-0.3,0l-0.3,0.2c-0.6,0.5-1.3,0.9-2,1.4c-0.7-0.3-1.4-0.6-2-0.9c1.4-0.8,2.7-1.7,3.9-2.7
			c3.6,0.8,6.1,0.6,6.2,0.6l0.6-0.1l0.1-0.6c0-0.1,0.2-2.7-0.6-6.2c1.3-1.7,2.5-3.4,3.5-5.3c0.7-1.2,1.3-2.5,1.8-3.8
			c3.5-8.5,2.8-15.6,2.8-15.9l-0.1-0.6L52,12.7c-0.3,0-7.1-0.7-15.5,2.6c-0.7-0.4-1.4-0.8-2.1-1.2C39.8,11.8,44.9,11,48.3,10.8
			 M48.3,39.1c0.2-0.3,0.5-0.7,0.7-1c2.2,6.1,2.3,11.3,2.2,13.1c-1.8,0.1-7,0-13.1-2.2c0.3-0.2,0.6-0.4,0.9-0.6c4.9,0.7,8.5,0,8.7,0
			l0.5-0.1l0.1-0.5C48.3,47.6,49,43.9,48.3,39.1 M22.2,37.6c-1.2-1.5-2.4-3.2-3.3-4.9c1-1.7,2.1-3.4,3.3-4.9l0.2-0.3l-0.1-0.4
			c-0.6-2.5-0.7-4.5-0.7-5.4c1,0,3,0.1,5.4,0.7l0.4,0.1l0.3-0.2c1.6-1.3,3.2-2.4,5-3.4c1.7,1,3.4,2.1,4.9,3.3l0.3,0.3l0.4-0.1
			c2.4-0.6,4.4-0.7,5.4-0.7c0,1-0.1,3-0.7,5.4l-0.1,0.4l0.3,0.3c1.2,1.5,2.4,3.2,3.3,4.9c-1,1.7-2.1,3.4-3.4,5L42.9,38l0.1,0.4
			c0.6,2.4,0.7,4.4,0.7,5.4c-1,0-3-0.1-5.4-0.7L37.9,43l-0.3,0.2c-1.5,1.2-3.2,2.3-4.9,3.3c-1.7-1-3.4-2.1-4.9-3.3l-0.3-0.2L27.1,43
			c-2.4,0.6-4.4,0.7-5.4,0.7c0-1,0-3,0.7-5.4l0.1-0.4L22.2,37.6z M48.3,17.7l-0.1-0.5l-0.5-0.1c-0.2,0-3.8-0.7-8.6,0
			c-0.3-0.2-0.6-0.4-0.9-0.7c6.1-2.2,11.3-2.2,13.1-2.2c0.1,1.8,0.1,7-2.2,13.1c-0.2-0.3-0.5-0.7-0.7-1C49,21.5,48.3,17.8,48.3,17.7
			 M32.7,13.3c-1.4-0.7-2.8-1.2-4.1-1.7c1.7-2.5,3.4-4.1,4.2-4.8c0.8,0.7,2.4,2.4,4.1,4.8C35.5,12,34.1,12.6,32.7,13.3 M32.7,1.9
			c1.2,1,4.5,3.9,7.6,8.6c-0.6,0.2-1.3,0.3-1.9,0.5c-2.6-3.9-5.1-5.9-5.2-6l-0.5-0.4l-0.5,0.4c-0.1,0.1-2.6,2.1-5.2,6
			c-0.7-0.2-1.3-0.4-1.9-0.5C28.2,5.8,31.5,2.9,32.7,1.9 M10.8,10.9c2.4-0.2,11.7-0.8,21.5,4c1.3,0.6,2.5,1.3,3.7,2
			c0.8,0.5,1.6,1.1,2.4,1.6l0.3,0.2l0.3-0.1c3.7-0.6,6.7-0.3,7.9-0.1c0.2,1.2,0.5,4.2-0.1,7.9l-0.1,0.3l0.2,0.2
			c0.5,0.7,1,1.4,1.4,2.1c-0.3,0.7-0.6,1.4-0.9,2c-0.8-1.4-1.8-2.7-2.8-4c0.8-3.5,0.6-6.1,0.6-6.2l-0.1-0.6l-0.6-0.1
			c-0.1,0-2.7-0.2-6.2,0.6c-1.6-1.3-3.4-2.5-5.2-3.5c-1.2-0.7-2.5-1.3-3.8-1.8c-8.5-3.5-15.6-2.8-15.9-2.8l-0.6,0.1l-0.1,0.6
			c0,0.3-0.7,7.1,2.6,15.5c-0.4,0.7-0.8,1.4-1.2,2.1c-2.3-5.4-3.1-10.4-3.4-13.9C10.6,14.1,10.7,11.9,10.8,10.9 M17,26.3
			c-0.2,0.3-0.4,0.6-0.6,0.9c-2.2-6.1-2.2-11.3-2.2-13.1c1.8-0.1,7-0.1,13.1,2.2c-0.3,0.2-0.6,0.5-1,0.7c-4.9-0.7-8.5,0-8.7,0
			l-0.5,0.1L17,17.7C17,17.8,16.3,21.5,17,26.3 M11.6,36.9c-2.5-1.8-4.1-3.4-4.9-4.2c0.7-0.8,2.4-2.4,4.8-4.1c0.5,1.4,1,2.8,1.7,4.2
			C12.6,34.1,12,35.5,11.6,36.9 M1.9,32.7c1-1.2,3.9-4.5,8.6-7.6c0.2,0.6,0.3,1.3,0.5,1.9c-3.9,2.7-5.9,5.1-6,5.2l-0.4,0.5l0.4,0.5
			c0.1,0.1,2.1,2.5,6,5.2c-0.2,0.7-0.4,1.3-0.5,1.9C5.8,37.2,2.9,33.9,1.9,32.7 M17,54.6c-3,0.2-5.2,0.1-6.2,0c-0.1-1-0.2-3.2,0-6.2
			c0.3-3.7,1.2-9.4,4-15.3c0.6-1.3,1.3-2.5,2-3.7c0.5-0.8,1-1.6,1.6-2.4l0.2-0.3l-0.1-0.3c-0.6-3.7-0.3-6.8-0.1-7.9
			c1.2-0.2,4.2-0.5,7.9,0.1l0.3,0.1l0.3-0.2c0.7-0.5,1.3-1,2.1-1.4c0.7,0.3,1.4,0.6,2.1,1c-1.4,0.8-2.8,1.8-4,2.8
			c-3.6-0.9-6.1-0.6-6.2-0.6l-0.6,0.1l-0.1,0.6c0,0.1-0.3,2.7,0.6,6.2c-1.3,1.6-2.4,3.4-3.4,5.2c-0.7,1.2-1.3,2.5-1.8,3.8
			c-3.5,8.5-2.8,15.6-2.8,15.9l0.1,0.6l0.6,0.1c0.1,0,0.7,0.1,1.8,0.1c2.6,0,7.8-0.4,13.8-2.7c0.7,0.4,1.3,0.8,2,1.1
			C25.6,53.5,20.5,54.3,17,54.6 M16.4,38.1c0.2,0.3,0.4,0.6,0.6,0.9c-0.7,4.9,0,8.5,0,8.7l0.1,0.5l0.5,0.1c0.1,0,3.8,0.8,8.7,0
			c0.3,0.2,0.6,0.4,1,0.7c-6.1,2.2-11.3,2.3-13.1,2.2C14.1,49.5,14.1,44.3,16.4,38.1 M32.7,52.1c1.4,0.7,2.8,1.2,4.2,1.7
			c-1.7,2.5-3.4,4.1-4.2,4.9c-0.8-0.7-2.4-2.4-4.2-4.9C29.9,53.3,31.3,52.7,32.7,52.1 M32.7,63.5c-1.2-1-4.5-3.9-7.6-8.7
			c0.6-0.2,1.3-0.3,1.9-0.5c2.7,3.9,5.1,6,5.2,6.1l0.5,0.4l0.5-0.4c0.1-0.1,2.5-2.2,5.2-6c0.6,0.2,1.3,0.4,1.9,0.5
			C37.2,59.5,33.9,62.5,32.7,63.5 M54.5,54.5c-1,0.1-3.2,0.2-6.2,0c-3.7-0.3-9.4-1.2-15.3-4c-1.3-0.6-2.5-1.3-3.6-2
			C28.5,48,27.7,47.5,27,47l-0.3-0.2l-0.3,0.1c-3.7,0.6-6.8,0.3-7.9,0.1c-0.2-1.2-0.5-4.2,0.1-7.9l0.1-0.3l-0.2-0.3
			c-0.5-0.6-0.9-1.3-1.4-2c0.3-0.7,0.6-1.4,1-2.1c0.8,1.4,1.8,2.7,2.8,4c-0.8,3.6-0.6,6.1-0.6,6.2l0.1,0.6l0.6,0.1
			c0.1,0,2.7,0.3,6.2-0.6c1.6,1.3,3.4,2.5,5.2,3.5c1.2,0.7,2.5,1.3,3.8,1.8c6.1,2.5,11.5,2.9,14.1,2.9c1.1,0,1.7-0.1,1.8-0.1
			l0.6-0.1l0.1-0.6c0-0.3,0.7-7.2-2.7-15.5c0.4-0.7,0.8-1.3,1.1-2c2.3,5.3,3.1,10.4,3.3,13.8C54.8,51.3,54.6,53.5,54.5,54.5
			 M54.8,40.3c-0.2-0.6-0.3-1.3-0.5-1.9c3.9-2.7,6-5.1,6-5.2l0.4-0.5l-0.4-0.5c-0.1-0.1-2.1-2.5-6-5.2c0.2-0.7,0.4-1.3,0.5-1.9
			c4.7,3.1,7.7,6.4,8.7,7.6C62.5,33.9,59.5,37.2,54.8,40.3">
   </path>
  </g>
 </g>
</svg>